<svg width="32" height="32" viewBox="0 0 32 32" fill="none" xmlns="http://www.w3.org/2000/svg">
<path d="M3.71111 23.7772C3.11852 24.0569 2.51881 24.0732 1.912 23.8263C1.30518 23.5793 1.00119 23.1972 1 22.6801V9.32057C1 8.80426 1.304 8.4222 1.912 8.17437C2.52 7.92654 3.1197 7.94289 3.71111 8.22342L18.2 14.9032C18.7333 15.1613 19 15.527 19 16.0003C19 16.4736 18.7333 16.8393 18.2 17.0975L3.71111 23.7772Z" fill="white"/>
<path d="M15.7111 23.7772C15.1185 24.0569 14.5188 24.0732 13.912 23.8263C13.3052 23.5793 13.0012 23.1972 13 22.6801V9.32057C13 8.80426 13.304 8.4222 13.912 8.17437C14.52 7.92654 15.1197 7.94289 15.7111 8.22342L30.2 14.9032C30.7333 15.1613 31 15.527 31 16.0003C31 16.4736 30.7333 16.8393 30.2 17.0975L15.7111 23.7772Z" fill="white"/>
</svg>
