<svg width="32" height="32" viewBox="0 0 32 32" fill="none" xmlns="http://www.w3.org/2000/svg">
<path d="M28.2889 23.7772C28.8815 24.0569 29.4812 24.0732 30.088 23.8263C30.6948 23.5793 30.9988 23.1972 31 22.6801V9.32057C31 8.80426 30.696 8.4222 30.088 8.17437C29.48 7.92654 28.8803 7.94289 28.2889 8.22342L13.8 14.9032C13.2667 15.1613 13 15.527 13 16.0003C13 16.4736 13.2667 16.8393 13.8 17.0975L28.2889 23.7772Z" fill="white"/>
<path d="M16.2889 23.7772C16.8815 24.0569 17.4812 24.0732 18.088 23.8263C18.6948 23.5793 18.9988 23.1972 19 22.6801V9.32057C19 8.80426 18.696 8.4222 18.088 8.17437C17.48 7.92654 16.8803 7.94289 16.2889 8.22342L1.8 14.9032C1.26667 15.1613 1 15.527 1 16.0003C1 16.4736 1.26667 16.8393 1.8 17.0975L16.2889 23.7772Z" fill="white"/>
</svg>
