<svg style="display: none;" aria-hidden="true" xmlns="http://www.w3.org/2000/svg" xmlns:xlink="http://www.w3.org/1999/xlink">
	<symbol viewBox="0 0 32 32" id="player-stop" stroke="none" xmlns="http://www.w3.org/2000/svg">
		<path d="M22.25 6H9.75C8.75544 6 7.80161 6.39509 7.09835 7.09835C6.39509 7.80161 6 8.75544 6 9.75V22.25C6 23.2446 6.39509 24.1984 7.09835 24.9017C7.80161 25.6049 8.75544 26 9.75 26H22.25C23.2446 26 24.1984 25.6049 24.9017 24.9017C25.6049 24.1984 26 23.2446 26 22.25V9.75C26 8.75544 25.6049 7.80161 24.9017 7.09835C24.1984 6.39509 23.2446 6 22.25 6Z"/>
	</symbol>
	<symbol viewBox="0 0 32 32" id="player-pause" stroke="none" xmlns="http://www.w3.org/2000/svg">
		<rect x="18" y="6" width="4" height="20" rx="2"/>
		<rect x="10" y="6" width="4" height="20" rx="2"/>
	</symbol>
	<symbol viewBox="0 0 32 32" id="player-prev-track" stroke="none" xmlns="http://www.w3.org/2000/svg">
		<path d="M28.2889 23.7772C28.8815 24.0569 29.4812 24.0732 30.088 23.8263C30.6948 23.5793 30.9988 23.1972 31 22.6801V9.32057C31 8.80426 30.696 8.4222 30.088 8.17437C29.48 7.92654 28.8803 7.94289 28.2889 8.22342L13.8 14.9032C13.2667 15.1613 13 15.527 13 16.0003C13 16.4736 13.2667 16.8393 13.8 17.0975L28.2889 23.7772Z"/>
		<path d="M16.2889 23.7772C16.8815 24.0569 17.4812 24.0732 18.088 23.8263C18.6948 23.5793 18.9988 23.1972 19 22.6801V9.32057C19 8.80426 18.696 8.4222 18.088 8.17437C17.48 7.92654 16.8803 7.94289 16.2889 8.22342L1.8 14.9032C1.26667 15.1613 1 15.527 1 16.0003C1 16.4736 1.26667 16.8393 1.8 17.0975L16.2889 23.7772Z"/>
	</symbol>
	<symbol viewBox="0 0 32 32" id="player-playback" stroke="none" xmlns="http://www.w3.org/2000/svg">
		<path d="M10.8617 26.6937C10.2362 27.0782 9.60319 27.1007 8.96267 26.7611C8.32214 26.4215 8.00125 25.8962 8 25.1851V6.81579C8 6.10586 8.32089 5.58052 8.96267 5.23976C9.60444 4.89899 10.2375 4.92147 10.8617 5.3072L26.1556 14.4919C26.7185 14.8468 27 15.3497 27 16.0004C27 16.6512 26.7185 17.1541 26.1556 17.509L10.8617 26.6937Z"/>
	</symbol>
	<symbol viewBox="0 0 32 32" id="player-next-track" stroke="none" xmlns="http://www.w3.org/2000/svg">
		<path d="M3.71111 23.7772C3.11852 24.0569 2.51881 24.0732 1.912 23.8263C1.30518 23.5793 1.00119 23.1972 1 22.6801V9.32057C1 8.80426 1.304 8.4222 1.912 8.17437C2.52 7.92654 3.1197 7.94289 3.71111 8.22342L18.2 14.9032C18.7333 15.1613 19 15.527 19 16.0003C19 16.4736 18.7333 16.8393 18.2 17.0975L3.71111 23.7772Z"/>
		<path d="M15.7111 23.7772C15.1185 24.0569 14.5188 24.0732 13.912 23.8263C13.3052 23.5793 13.0012 23.1972 13 22.6801V9.32057C13 8.80426 13.304 8.4222 13.912 8.17437C14.52 7.92654 15.1197 7.94289 15.7111 8.22342L30.2 14.9032C30.7333 15.1613 31 15.527 31 16.0003C31 16.4736 30.7333 16.8393 30.2 17.0975L15.7111 23.7772Z"/>
	</symbol>
	<symbol viewBox="0 0 8 12" id="90deg-arrow-left" stroke="none" xmlns="http://www.w3.org/2000/svg">
		<path d="M2.3335 5.25H3.0835V6.75H2.3335V5.25ZM1.1365 6.53033C0.843606 6.23744 0.843606 5.76256 1.1365 5.46967L5.90947 0.696699C6.20236 0.403806 6.67724 0.403806 6.97013 0.696699C7.26302 0.989593 7.26302 1.46447 6.97013 1.75736L2.72749 6L6.97013 10.2426C7.26302 10.5355 7.26302 11.0104 6.97013 11.3033C6.67724 11.5962 6.20236 11.5962 5.90947 11.3033L1.1365 6.53033ZM2.3335 6.75H1.66683V5.25H2.3335V6.75Z"/>
	</symbol>
	<symbol viewBox="0 0 7 12" id="90deg-arrow-right" stroke="none" xmlns="http://www.w3.org/2000/svg">
		<path d="M5 5.25H4.25V6.75H5V5.25ZM6.197 6.53033C6.48989 6.23744 6.48989 5.76256 6.197 5.46967L1.42403 0.696699C1.13113 0.403806 0.656259 0.403806 0.363366 0.696699C0.0704727 0.989593 0.0704727 1.46447 0.363366 1.75736L4.60601 6L0.363366 10.2426C0.0704727 10.5355 0.0704727 11.0104 0.363366 11.3033C0.656259 11.5962 1.13113 11.5962 1.42403 11.3033L6.197 6.53033ZM5 6.75H5.66667V5.25H5V6.75Z"/>
	</symbol>
</svg>